<svg xmlns="http://www.w3.org/2000/svg" width="96" height="96" shape-rendering="crispEdges"><path fill="#1F1F23" d="M36 21h3v3h-3zM39 21h3v3h-3zM42 21h3v3h-3zM45 21h3v3h-3zM48 21h3v3h-3zM51 21h3v3h-3z"/><path fill="#1C1C1C" d="M54 21h3v3h-3z"/><path fill="#1F1F23" d="M30 24h3v3h-3zM33 24h3v3h-3zM36 24h3v3h-3zM39 24h3v3h-3zM42 24h3v3h-3zM45 24h3v3h-3zM48 24h3v3h-3zM51 24h3v3h-3z"/><path fill="#1C1C1C" d="M54 24h3v3h-3z"/><path fill="#0E7" d="M57 24h3v3h-3z"/><path fill="#00FF7F" d="M60 24h3v3h-3z"/><path fill="#1F1F23" d="M27 27h3v3h-3zM30 27h3v3h-3zM33 27h3v3h-3zM36 27h3v3h-3zM39 27h3v3h-3zM42 27h3v3h-3zM45 27h3v3h-3zM48 27h3v3h-3zM51 27h3v3h-3z"/><path fill="#1C1C1C" d="M54 27h3v3h-3z"/><path fill="#0E7" d="M57 27h3v3h-3z"/><path fill="#00FF7F" d="M60 27h3v3h-3zM63 27h3v3h-3z"/><path fill="#1F1F23" d="M24 30h3v3h-3zM27 30h3v3h-3zM30 30h3v3h-3zM33 30h3v3h-3zM36 30h3v3h-3zM39 30h3v3h-3zM42 30h3v3h-3zM45 30h3v3h-3zM48 30h3v3h-3z"/><path fill="#1C1C1C" d="M51 30h3v3h-3z"/><path fill="#0E7" d="M54 30h3v3h-3z"/><path fill="#00FF7F" d="M57 30h3v3h-3zM60 30h3v3h-3zM63 30h3v3h-3zM66 30h3v3h-3z"/><path fill="#1F1F23" d="M21 33h3v3h-3zM24 33h3v3h-3zM27 33h3v3h-3zM30 33h3v3h-3zM33 33h3v3h-3zM36 33h3v3h-3z"/><path fill="#1C1C1C" d="M39 33h3v3h-3zM42 33h3v3h-3zM45 33h3v3h-3zM48 33h3v3h-3z"/><path fill="#0E7" d="M51 33h3v3h-3zM54 33h3v3h-3z"/><path fill="#00FF7F" d="M57 33h3v3h-3zM60 33h3v3h-3zM63 33h3v3h-3zM66 33h3v3h-3zM69 33h3v3h-3z"/><path fill="#1F1F23" d="M18 36h3v3h-3zM21 36h3v3h-3zM24 36h3v3h-3zM27 36h3v3h-3zM30 36h3v3h-3zM33 36h3v3h-3z"/><path fill="#1C1C1C" d="M36 36h3v3h-3z"/><path fill="#0E7" d="M54 36h3v3h-3z"/><path fill="#00FF7F" d="M57 36h3v3h-3zM60 36h3v3h-3zM63 36h3v3h-3zM66 36h3v3h-3zM69 36h3v3h-3zM72 36h3v3h-3z"/><path fill="#1F1F23" d="M18 39h3v3h-3zM21 39h3v3h-3zM24 39h3v3h-3zM27 39h3v3h-3zM30 39h3v3h-3z"/><path fill="#1C1C1C" d="M33 39h3v3h-3z"/><path fill="#0E7" d="M57 39h3v3h-3z"/><path fill="#00FF7F" d="M60 39h3v3h-3zM63 39h3v3h-3zM66 39h3v3h-3zM69 39h3v3h-3zM72 39h3v3h-3z"/><path fill="#1F1F23" d="M15 42h3v3h-3zM18 42h3v3h-3zM21 42h3v3h-3zM24 42h3v3h-3zM27 42h3v3h-3z"/><path fill="#1C1C1C" d="M30 42h3v3h-3z"/><path fill="#D1D7EE" d="M39 42h3v3h-3z"/><path fill="#D9DFF6" d="M42 42h3v3h-3z"/><path fill="#0E7" d="M60 42h3v3h-3z"/><path fill="#00FF7F" d="M63 42h3v3h-3zM66 42h3v3h-3zM69 42h3v3h-3zM72 42h3v3h-3zM75 42h3v3h-3z"/><path fill="#1F1F23" d="M15 45h3v3h-3zM18 45h3v3h-3zM21 45h3v3h-3zM24 45h3v3h-3z"/><path fill="#1C1C1C" d="M27 45h3v3h-3z"/><path fill="#D1D7EE" d="M39 45h3v3h-3z"/><path fill="#D9DFF6" d="M42 45h3v3h-3z"/><path fill="#0E7" d="M63 45h3v3h-3z"/><path fill="#00FF7F" d="M66 45h3v3h-3zM69 45h3v3h-3zM72 45h3v3h-3zM75 45h3v3h-3z"/><path fill="#1F1F23" d="M15 48h3v3h-3zM18 48h3v3h-3zM21 48h3v3h-3zM24 48h3v3h-3z"/><path fill="#1C1C1C" d="M27 48h3v3h-3z"/><path fill="#D1D7EE" d="M39 48h3v3h-3z"/><path fill="#D9DFF6" d="M42 48h3v3h-3z"/><path fill="#0E7" d="M63 48h3v3h-3z"/><path fill="#00FF7F" d="M66 48h3v3h-3zM69 48h3v3h-3zM72 48h3v3h-3zM75 48h3v3h-3z"/><path fill="#1F1F23" d="M15 51h3v3h-3zM18 51h3v3h-3zM21 51h3v3h-3zM24 51h3v3h-3z"/><path fill="#1C1C1C" d="M27 51h3v3h-3z"/><path fill="#D1D7EE" d="M39 51h3v3h-3z"/><path fill="#D9DFF6" d="M42 51h3v3h-3z"/><path fill="#0E7" d="M63 51h3v3h-3z"/><path fill="#00FF7F" d="M66 51h3v3h-3zM69 51h3v3h-3zM72 51h3v3h-3zM75 51h3v3h-3z"/><path fill="#1F1F23" d="M15 54h3v3h-3zM18 54h3v3h-3zM21 54h3v3h-3z"/><path fill="#1C1C1C" d="M24 54h3v3h-3z"/><path fill="#0E7" d="M27 54h3v3h-3z"/><path fill="#D1D7EE" d="M39 54h3v3h-3z"/><path fill="#D9DFF6" d="M42 54h3v3h-3z"/><path fill="#0E7" d="M63 54h3v3h-3z"/><path fill="#00FF7F" d="M66 54h3v3h-3zM69 54h3v3h-3zM72 54h3v3h-3zM75 54h3v3h-3z"/><path fill="#1F1F23" d="M15 57h3v3h-3zM18 57h3v3h-3z"/><path fill="#1C1C1C" d="M21 57h3v3h-3z"/><path fill="#0E7" d="M24 57h3v3h-3zM27 57h3v3h-3z"/><path fill="#D1D7EE" d="M39 57h3v3h-3z"/><path fill="#D9DFF6" d="M42 57h3v3h-3zM45 57h3v3h-3zM48 57h3v3h-3zM51 57h3v3h-3z"/><path fill="#0E7" d="M63 57h3v3h-3z"/><path fill="#00FF7F" d="M66 57h3v3h-3zM69 57h3v3h-3zM72 57h3v3h-3zM75 57h3v3h-3z"/><path fill="#1C1C1C" d="M15 60h3v3h-3zM18 60h3v3h-3z"/><path fill="#00FF7F" d="M21 60h3v3h-3zM24 60h3v3h-3z"/><path fill="#0E7" d="M27 60h3v3h-3zM30 60h3v3h-3z"/><path fill="#D1D7EE" d="M42 60h3v3h-3zM45 60h3v3h-3zM48 60h3v3h-3z"/><path fill="#D9DFF6" d="M51 60h3v3h-3z"/><path fill="#0E7" d="M60 60h3v3h-3z"/><path fill="#00FF7F" d="M63 60h3v3h-3zM66 60h3v3h-3zM69 60h3v3h-3zM72 60h3v3h-3zM75 60h3v3h-3zM18 63h3v3h-3zM21 63h3v3h-3zM24 63h3v3h-3zM27 63h3v3h-3z"/><path fill="#0E7" d="M30 63h3v3h-3zM33 63h3v3h-3zM57 63h3v3h-3z"/><path fill="#00FF7F" d="M60 63h3v3h-3zM63 63h3v3h-3zM66 63h3v3h-3zM69 63h3v3h-3zM72 63h3v3h-3zM18 66h3v3h-3zM21 66h3v3h-3zM24 66h3v3h-3zM27 66h3v3h-3zM30 66h3v3h-3z"/><path fill="#0E7" d="M33 66h3v3h-3zM36 66h3v3h-3zM54 66h3v3h-3z"/><path fill="#00FF7F" d="M57 66h3v3h-3zM60 66h3v3h-3zM63 66h3v3h-3zM66 66h3v3h-3zM69 66h3v3h-3zM72 66h3v3h-3zM21 69h3v3h-3zM24 69h3v3h-3zM27 69h3v3h-3zM30 69h3v3h-3zM33 69h3v3h-3z"/><path fill="#0E7" d="M36 69h3v3h-3zM39 69h3v3h-3zM42 69h3v3h-3zM45 69h3v3h-3zM48 69h3v3h-3zM51 69h3v3h-3z"/><path fill="#00FF7F" d="M54 69h3v3h-3zM57 69h3v3h-3zM60 69h3v3h-3zM63 69h3v3h-3zM66 69h3v3h-3zM69 69h3v3h-3zM24 72h3v3h-3zM27 72h3v3h-3zM30 72h3v3h-3zM33 72h3v3h-3zM36 72h3v3h-3zM39 72h3v3h-3zM42 72h3v3h-3zM45 72h3v3h-3zM48 72h3v3h-3zM51 72h3v3h-3zM54 72h3v3h-3zM57 72h3v3h-3zM60 72h3v3h-3zM63 72h3v3h-3zM66 72h3v3h-3zM27 75h3v3h-3zM30 75h3v3h-3zM33 75h3v3h-3zM36 75h3v3h-3zM39 75h3v3h-3zM42 75h3v3h-3zM45 75h3v3h-3zM48 75h3v3h-3zM51 75h3v3h-3zM54 75h3v3h-3zM57 75h3v3h-3zM60 75h3v3h-3zM63 75h3v3h-3zM30 78h3v3h-3zM33 78h3v3h-3zM36 78h3v3h-3zM39 78h3v3h-3zM42 78h3v3h-3zM45 78h3v3h-3zM48 78h3v3h-3zM51 78h3v3h-3zM54 78h3v3h-3zM57 78h3v3h-3zM60 78h3v3h-3zM36 81h3v3h-3zM39 81h3v3h-3zM42 81h3v3h-3zM45 81h3v3h-3zM48 81h3v3h-3zM51 81h3v3h-3zM54 81h3v3h-3z"/></svg>